HIERARCHY
ROOT Hips
{
  OFFSET 12.736 97.2932 -188.164
  CHANNELS 6 Xposition Yposition Zposition Zrotation Xrotation Yrotation
  JOINT RightUpLeg
  {
    OFFSET -8.9458 -8.66707 0.101652
    CHANNELS 3 Zrotation Xrotation Yrotation
    JOINT RightLeg
    {
      OFFSET 0 -44.4227 1.3727
      CHANNELS 3 Zrotation Xrotation Yrotation
      JOINT RightFoot
      {
        OFFSET 0.253549 -42.0924 -1.46059
        CHANNELS 3 Zrotation Xrotation Yrotation
        JOINT RightToes
        {
          OFFSET 0.04 -4.41509 8.4991
          CHANNELS 3 Zrotation Xrotation Yrotation
          End Site
          {
            OFFSET -0.08 -0.137448 9.77979
          }
        }
      }
    }
  }
  JOINT Spine
  {
    OFFSET 0 11.8905 0
    CHANNELS 3 Zrotation Xrotation Yrotation
    JOINT Spine1
    {
      OFFSET 0 25.6574 0.127663
      CHANNELS 3 Zrotation Xrotation Yrotation
      JOINT HEad
      {
        OFFSET 0 8.73416 0.011341
        CHANNELS 3 Zrotation Xrotation Yrotation
        End Site
        {
          OFFSET -0.29 12.7742 2.51395
        }
      }
      JOINT LeftShoulder1
      {
        OFFSET 8.99 -0.362252 -0.22
        CHANNELS 3 Zrotation Xrotation Yrotation
        JOINT LeftArm
        {
          OFFSET 10.2827 -0.00338 0.322123
          CHANNELS 3 Zrotation Xrotation Yrotation
          JOINT LeftForeArm
          {
            OFFSET 32.7669 0.099144 -1.42434
            CHANNELS 3 Zrotation Xrotation Yrotation
            JOINT LeftHand
            {
              OFFSET 27.5643 0.085362 1.02216
              CHANNELS 3 Zrotation Xrotation Yrotation
              End Site
              {
                OFFSET 16.7443 -0.6 1.50291
              }
            }
          }
        }
      }
      JOINT RightShoulder
      {
        OFFSET -8.99 -0.362252 -0.22
        CHANNELS 3 Zrotation Xrotation Yrotation
        JOINT RightArm
        {
          OFFSET -10.2827 -0.00338 0.322123
          CHANNELS 3 Zrotation Xrotation Yrotation
          JOINT RightForeArm
          {
            OFFSET -32.8971 0.099144 -1.42434
            CHANNELS 3 Zrotation Xrotation Yrotation
            JOINT RightHand
            {
              OFFSET -27.4921 0.085362 1.02216
              CHANNELS 3 Zrotation Xrotation Yrotation
              End Site
              {
                OFFSET -16.6312 -0.6 1.50291
              }
            }
          }
        }
      }
    }
  }
  JOINT LeftUpLeg
  {
    OFFSET 8.9458 -8.66707 0.101652
    CHANNELS 3 Zrotation Xrotation Yrotation
    JOINT LeftLeg
    {
      OFFSET 0 -44.4227 1.3727
      CHANNELS 3 Zrotation Xrotation Yrotation
      JOINT LeftFoot
      {
        OFFSET -0.253549 -42.0924 -1.46059
        CHANNELS 3 Zrotation Xrotation Yrotation
        JOINT LeftToes
        {
          OFFSET -0.04 -4.41509 8.4991
          CHANNELS 3 Zrotation Xrotation Yrotation
          End Site
          {
            OFFSET 0.08 -0.047448 9.77979
          }
        }
      }
    }
  }
}
MOTION
Frames:	17
Frame Time:	0.0166667
85.8832 94.0598 -134.269 -2.72473 -1.36522 -59.0908 -27.663 -17.9986 0.129795 20.8149 36.9537 -21.765 -0.764642 -14.9072 -0.604554 0.0462048 0.000533403 0.662642 0.0206603 7.85354 4.81575 1.56593 15.7948 9.39905 -6.52769 -5.36725 15.5141 8.82781e-032 -1.59028e-015 3.18055e-015 -39.0102 -68.9331 29.5336 -30.9951 60.1691 -86.8454 29.6416 9.96271 -33.7223 18.2275 4.39537 18.7213 82.458 -34.7305 43.6336 -17.3423 56.6138 150.873 -9.42385 23.1649 -49.1615 27.2799 -19.802 4.96472 -9.11298 40.773 1.29403 -9.37728 -10.472 -0.285682 -1.36606e-009 1.55892e-007 -4.75425e-009 
84.3694 93.5168 -135.936 -2.80417 -1.80235 -58.2018 -27.7395 -18.6375 -1.45866 21.7751 38.7926 -22.1221 -2.00785 -9.85547 -0.581392 0.0462048 0.000533403 0.662642 0.0974119 7.87496 4.69403 1.5328 15.8314 9.16687 -6.74085 -5.40035 15.0031 -3.18055e-015 7.95139e-016 6.36111e-015 -42.0148 -68.0661 26.6836 -29.8035 59.9741 -89.5198 29.3236 10.0327 -33.8849 18.0865 4.34154 18.5917 82.9214 -34.7907 44.1124 -17.0992 57.5682 150.469 -9.86289 23.2954 -48.7291 27.8468 -19.4462 4.08821 -8.75965 40.0286 0.33509 -9.2995 -9.97377 -0.284736 -1.36606e-009 1.55892e-007 -4.75426e-009 
82.7561 92.5998 -137.979 -2.81459 -2.13294 -56.8541 -28.0316 -19.6678 -3.07888 23.956 41.5901 -24.3084 -3.03208 -6.11782 -0.354395 0.0462048 0.000533403 0.662642 0.101176 7.82356 4.53359 1.47835 15.7199 8.85 -6.93126 -5.37391 14.5651 0 3.18055e-015 -0 -45.3779 -67.6817 22.6711 -28.3697 59.9071 -92.328 29.4043 10.0084 -33.8666 17.8608 4.28411 18.5186 83.4895 -34.8674 44.9491 -16.9154 58.5653 150.155 -10.4136 23.4587 -48.2369 28.5982 -20.0929 3.1074 -8.08234 40.2486 -0.876981 -9.40611 -9.81867 -0.364298 -1.36607e-009 1.55892e-007 -4.75425e-009 
81.0693 91.4107 -140.317 -2.72964 -2.32422 -55.1442 -28.4538 -20.9471 -4.6221 27.4617 44.8999 -28.3818 -3.98604 -4.16229 -0.0226846 0.0462048 0.000533403 0.662642 0.0604433 7.69302 4.34863 1.41028 15.448 8.4809 -7.11331 -5.27897 14.2439 3.18055e-015 -1.59028e-015 -3.18055e-015 -49.2298 -67.6284 17.46 -26.6904 59.9003 -95.2597 29.8513 9.89733 -33.6836 17.585 4.23165 18.5131 84.0617 -34.9798 46.0187 -16.8146 59.4773 149.957 -10.9678 23.6155 -47.7162 29.4353 -21.6468 2.16189 -6.97035 41.23 -2.29984 -9.79414 -9.95672 -0.520291 -1.36607e-009 1.55892e-007 -4.75426e-009 
79.3491 90.0528 -142.853 -2.53668 -2.35828 -53.2036 -28.8773 -22.4098 -5.99975 32.3536 48.3287 -34.2207 -4.91637 -4.28439 0.330696 0.0462048 0.000533403 0.662642 0.0115766 7.48716 4.15761 1.32164 15.0238 8.10521 -7.28115 -5.13024 14.0504 -7.95139e-016 -3.18055e-015 -3.18055e-015 -53.6772 -67.7403 11.0987 -24.8629 59.9095 -98.2134 30.5613 9.73746 -33.3454 17.2853 4.18902 18.5774 84.5659 -35.1502 47.1666 -16.8211 60.1984 149.893 -11.4137 23.7298 -47.215 30.2781 -23.9566 1.38083 -5.43356 42.7664 -3.79593 -10.5644 -10.371 -0.764333 -1.36606e-009 1.55892e-007 -4.75425e-009 
77.6386 88.6152 -145.492 -2.23504 -2.2423 -51.1696 -29.1703 -24.04 -7.13764 38.5747 51.5496 -41.5683 -5.69941 -6.54022 0.632274 0.0462048 0.000533403 0.662642 -0.0267357 7.21881 3.97956 1.19107 14.4742 7.76748 -7.40989 -4.9555 13.9585 -1.59028e-015 4.77083e-015 6.36111e-015 -58.7135 -67.8518 3.77804 -23.1014 59.9324 -100.986 31.3685 9.58772 -32.8708 16.9785 4.15765 18.7064 84.9668 -35.3908 48.2314 -16.9531 60.6645 149.982 -11.6729 23.7813 -46.7923 31.105 -26.851 0.860861 -3.6916 44.7336 -5.10588 -11.7711 -11.1078 -1.12855 -1.36607e-009 1.55892e-007 -4.75426e-009 
75.974 87.1618 -148.147 -1.82967 -2.00947 -49.16 -29.2446 -25.8318 -7.99223 45.9067 54.3243 -50.0617 -6.08199 -10.7315 0.851307 0.0462048 0.000533403 0.662642 -0.0705803 6.90807 3.83044 0.987414 13.8395 7.49986 -7.46357 -4.78351 13.9098 7.95139e-016 0 6.36111e-015 -64.1762 -67.8233 -4.15968 -21.6619 60.0101 -103.349 32.0949 9.50868 -32.2813 16.6775 4.13769 18.8908 85.255 -35.6919 49.0705 -17.2035 60.8607 150.223 -11.7286 23.7716 -46.4985 31.9658 -30.1716 0.673436 -2.17689 47.1395 -5.88107 -13.3953 -12.2657 -1.66285 -1.36607e-009 1.55892e-007 -4.75425e-009 
74.3811 85.7255 -150.746 -1.32667 -1.70896 -47.2559 -29.0955 -27.7568 -8.57045 54.0033 56.5207 -59.2611 -5.77797 -16.4408 1.05231 0.0462048 0.000533403 0.662642 -0.167402 6.5795 3.71909 0.679908 13.1644 7.316 -7.40856 -4.63381 13.8288 1.59028e-015 -4.77083e-015 9.54166e-015 -69.7804 -67.5674 -12.281 -20.6891 60.1957 -105.178 32.6342 9.5409 -31.5697 16.3969 4.12966 19.1216 85.428 -36.0226 49.5828 -17.522 60.81 150.579 -11.6295 23.7215 -46.3523 32.9572 -33.7813 0.891964 -1.41539 50.0936 -5.79366 -15.3593 -13.9242 -2.42153 -1.36606e-009 1.55892e-007 -4.75426e-009 
72.8775 84.3086 -153.238 -0.73673 -1.38952 -45.5 -28.8077 -29.7574 -8.93684 62.4797 58.1047 -68.6967 -4.5532 -23.0864 1.41621 0.0462048 0.000533403 0.662642 -0.369927 6.25742 3.6457 0.252063 12.4901 7.21244 -7.22719 -4.51289 13.6439 1.76556e-031 -3.18055e-015 3.18055e-015 -75.2227 -67.061 -20.1751 -20.0881 60.5076 -106.559 33.0126 9.69289 -30.6742 16.1556 4.13563 19.3915 85.4778 -36.3413 49.7229 -17.8216 60.5576 150.976 -11.4665 23.6614 -46.3296 34.1586 -37.5487 1.60118 -1.82671 53.7004 -4.68073 -17.5596 -16.0389 -3.43582 -1.36606e-009 1.55892e-007 -4.75425e-009 
71.4782 82.8902 -155.586 -0.0845615 -1.08489 -43.9093 -28.5224 -31.7729 -9.20559 70.9966 59.1167 -77.9128 -2.30459 -29.96 2.19136 0.0462048 0.000533403 0.662642 -0.70208 5.96032 3.60444 -0.285029 11.8492 7.17484 -6.928 -4.41766 13.3073 -7.95139e-016 -4.77083e-015 3.18055e-015 -80.2813 -66.3345 -27.5497 -19.5345 60.9041 -107.777 33.3786 9.94159 -29.5037 15.9726 4.15794 19.6929 85.3934 -36.6084 49.5073 -18.0078 60.1501 151.336 -11.3302 23.6179 -46.3788 35.5552 -41.3405 2.85649 -3.545 57.9665 -2.63483 -19.8734 -18.3831 -4.67979 -1.36607e-009 1.55892e-007 -4.75425e-009 
70.1986 81.4433 -157.77 0.581851 -0.805543 -42.4948 -28.3702 -33.787 -9.52143 79.3072 59.67 -86.5164 0.833723 -36.2829 3.55113 0.0462048 0.000533403 0.662642 -1.13565 5.69693 3.58904 -0.886544 11.2637 7.18655 -6.54926 -4.34213 12.8118 -0 0 3.18055e-015 -84.8535 -65.4504 -34.2555 -18.6446 61.3023 -109.16 33.9148 10.2465 -28.0088 15.8605 4.19762 20.0168 85.172 -36.7937 49.0098 -18.0176 59.6229 151.595 -11.2695 23.6035 -46.4534 37.0271 -45.0389 4.62402 -6.43723 62.8003 0.0951097 -22.1318 -20.6101 -6.05813 -1.36606e-009 1.55892e-007 -4.75425e-009 
69.0527 79.9534 -159.776 1.18919 -0.538552 -41.2762 -28.4014 -35.8632 -10.0452 87.297 59.9729 -94.2735 4.3525 -41.3109 5.37849 0.0462048 0.000533403 0.662642 -1.58704 5.4667 3.59653 -1.47842 10.7463 7.2357 -6.15278 -4.28395 12.1962 8.82781e-031 7.95139e-015 -6.36111e-015 -88.9327 -64.4858 -40.2514 -17.2063 61.6188 -110.869 34.7309 10.5702 -26.2354 15.8177 4.25251 20.3502 84.8362 -36.8826 48.3522 -17.8526 59.0024 151.742 -11.2738 23.6135 -46.5415 38.4546 -48.5472 6.77105 -10.4726 68.0435 3.50316 -24.1263 -22.4129 -7.43767 -1.36606e-009 1.55892e-007 -4.75425e-009 
68.0481 78.4256 -161.603 1.64808 -0.254868 -40.2877 -28.5503 -38.1401 -10.9412 95.0422 60.3233 -101.246 7.33129 -44.4771 7.13079 0.0462048 0.000533403 0.662642 -1.93559 5.26343 3.62641 -1.97224 10.302 7.31679 -5.80739 -4.24543 11.5406 -7.95139e-016 1.59028e-015 6.36111e-015 -92.5684 -63.5223 -45.5601 -15.311 61.8114 -112.787 35.809 10.888 -24.3294 15.8285 4.31739 20.6793 84.4419 -36.8842 47.6925 -17.5819 58.3225 151.804 -11.2907 23.6318 -46.6671 39.8369 -51.7548 9.11154 -16.456 73.4421 8.54037 -25.6864 -23.6604 -8.7023 -1.36606e-009 1.55892e-007 -4.75426e-009 
67.1821 76.8788 -163.252 1.87587 0.07716 -39.564 -28.662 -40.7724 -12.3593 102.833 61.0269 -107.861 8.74968 -45.4659 8.05944 0.0462048 0.000533403 0.662642 -2.06384 5.0806 3.6765 -2.28613 9.93 7.42671 -5.56726 -4.2295 10.9488 -7.95139e-016 1.59028e-015 6.36111e-015 -95.8383 -62.6383 -50.2443 -13.3154 61.9097 -114.553 37.0241 11.1783 -22.4985 15.8687 4.38541 20.9922 84.0735 -36.8387 47.2081 -17.3208 57.6486 151.835 -11.2686 23.643 -46.8638 41.2859 -54.5199 11.4558 -27.4008 78.5522 18.4464 -26.7597 -24.4405 -9.80144 -1.36606e-009 1.55892e-007 -4.75426e-009 
66.4375 75.3329 -164.734 1.82714 0.475382 -39.1201 -28.5767 -43.8319 -14.3859 111.113 62.2389 -114.82 8.12864 -44.1765 7.78412 0.0462048 0.000533403 0.662642 -1.91086 4.91641 3.73884 -2.36633 9.6263 7.55682 -5.45164 -4.23496 10.5195 7.95139e-016 3.18055e-015 6.36111e-015 -98.8327 -61.8951 -54.3971 -11.6699 62.0131 -115.728 38.2112 11.413 -20.9523 15.9162 4.45048 21.2801 83.8296 -36.8126 47.0739 -17.1909 57.0847 151.876 -11.1914 23.6426 -47.1471 42.9463 -56.6998 13.6406 -51.6206 82.4185 41.7648 -27.3973 -25.0152 -10.7619 -1.36606e-009 1.55892e-007 -4.75426e-009 
65.7818 73.8029 -166.061 1.51633 0.931291 -38.9277 -28.2481 -47.2053 -16.9577 120.294 63.7975 -122.813 5.9466 -40.7469 6.65713 0.0462048 0.000533403 0.662642 -1.51016 4.77475 3.79887 -2.19916 9.38608 7.68571 -5.43471 -4.25408 10.3158 2.38542e-015 0 -6.36111e-015 -101.648 -61.3257 -58.1377 -10.7328 62.2524 -115.973 39.2301 11.5636 -19.8359 15.9585 4.50847 21.5353 83.8046 -36.8771 47.4343 -17.2912 56.7513 151.946 -11.0873 23.6389 -47.5012 44.8921 -58.2006 15.5251 -92.234 83.1027 81.7856 -27.7029 -25.721 -11.6687 -1.36606e-009 1.55892e-007 -4.75425e-009 
65.1701 72.3052 -167.24 1.02131 1.40334 -38.9108 -27.8486 -50.568 -19.7884 130.321 65.1834 -131.961 3.29423 -35.7443 5.41527 0.0462048 0.000533403 0.662642 -0.99311 4.65997 3.84075 -1.81269 9.20506 7.77703 -5.45023 -4.2755 10.3445 1.59028e-015 1.59028e-015 -3.18055e-015 -104.386 -60.9315 -61.6031 -10.6614 62.7291 -115.137 40.0059 11.6215 -19.1766 15.9952 4.55743 21.7488 84.0762 -37.0721 48.3744 -17.6877 56.7384 152.055 -10.9969 23.6441 -47.9034 47.0471 -59.0099 16.9598 -119.319 80.6206 108.665 -27.814 -26.8438 -12.6238 -1.36607e-009 1.55892e-007 -4.75425e-009 
